<svg width="46" height="46" viewBox="0 0 46 46" fill="none" xmlns="http://www.w3.org/2000/svg">
<path d="M8.62503 8.62485C15.331 5.2726 20.8438 9.3436 23 12.2186C25.1563 9.3436 30.6691 5.2726 37.375 8.62485C46 12.9373 43.8438 23.7186 37.375 30.1873C34.2183 33.3441 28.6595 38.9029 24.5942 41.995C24.1401 42.3399 23.583 42.5217 23.0128 42.5111C22.4426 42.5004 21.8927 42.2978 21.4518 41.936C17.7244 38.9273 11.7372 33.2995 8.62503 30.1873C2.15628 23.7186 2.55108e-05 12.9373 8.62503 8.62485Z" fill="#F8312F"/>
<path d="M23 12.2187V16.6031C24.8257 12.7434 29.361 7.58998 36.8834 8.39067C30.4003 5.47255 25.1031 9.41417 23 12.2187ZM17.1724 7.95942C14.7488 7.11561 11.8235 7.02505 8.62503 8.62498C2.57492e-05 12.9375 2.15628 23.7187 8.62503 30.1875C11.7372 33.2997 17.7244 38.9275 21.4518 41.9362C21.8929 42.2977 22.4429 42.5 23.013 42.5105C23.5832 42.5209 24.1403 42.3388 24.5942 41.9937C24.9593 41.7162 25.336 41.4187 25.7226 41.1053C21.62 38.0247 15.8614 33.1717 12.7348 30.3787C5.60915 24.0091 3.23296 13.3946 12.7348 9.14823C14.1382 8.50949 15.6377 8.10777 17.1724 7.95942Z" fill="#CA0B4A"/>
<path d="M30.3119 24.0558C32.2618 25.1816 35.381 23.4294 37.2788 20.1423C39.1767 16.8551 39.1345 13.2777 37.1846 12.152C35.2347 11.0262 32.1155 12.7784 30.2177 16.0655C28.3199 19.3527 28.3621 22.93 30.3119 24.0558Z" fill="#F37366"/>
</svg>
