<svg width="46" height="46" viewBox="0 0 46 46" fill="none" xmlns="http://www.w3.org/2000/svg">
<path d="M37.0215 29.8338C33.8559 32.9993 28.3238 38.53 24.2915 41.597C23.927 41.8738 23.4798 42.0197 23.0222 42.0111C22.5644 42.0026 22.1229 41.8399 21.769 41.5495L21.7659 41.547C18.0583 38.5543 12.0854 32.9406 8.97858 29.8338C5.81367 26.6689 3.72384 22.4653 3.46376 18.5642C3.20581 14.6949 4.73957 11.1266 8.84859 9.07208C12.0644 7.46452 14.9717 7.64075 17.3389 8.55305C19.723 9.47189 21.5683 11.1429 22.6 12.5186L23 13.0519L23.4 12.5186C24.4318 11.1429 26.2771 9.47189 28.6612 8.55305C31.0284 7.64075 33.9356 7.46452 37.1515 9.07208C41.2604 11.1266 42.7942 14.6949 42.5363 18.5642C42.2762 22.4653 40.1864 26.6689 37.0215 29.8338Z" stroke="#F8312F"/>
<path d="M8.84863 9.0722L8.84871 9.07216C10.9467 8.02271 12.9118 7.73354 14.6821 7.91218C13.9462 8.11458 13.2263 8.37529 12.5293 8.69244C10.0744 9.78986 8.35597 11.3135 7.29399 13.1064C6.23241 14.8986 5.84591 16.9275 6.00089 19.0045C6.30981 23.1445 8.76768 27.5031 12.4016 30.7514L12.4017 30.7515C15.4069 33.4362 20.837 38.0188 24.9087 41.1167C24.6992 41.2824 24.4935 41.4422 24.2917 41.5956L24.2916 41.5957C23.9271 41.8727 23.4799 42.0189 23.0222 42.0105C22.5644 42.0022 22.1229 41.8397 21.7688 41.5495L21.7659 41.5471C18.0583 38.5545 12.0854 32.9407 8.97858 29.8339C5.81367 26.669 3.72384 22.4655 3.46376 18.5644C3.20581 14.6951 4.73961 11.1267 8.84863 9.0722ZM33.4557 7.93425C28.6562 8.59431 25.3725 11.7156 23.5 14.6665V12.3877C25.2137 10.181 28.8648 7.39268 33.4557 7.93425Z" stroke="#F8312F"/>
<path d="M36.8458 19.8923C35.9339 21.4717 34.7399 22.6608 33.57 23.3179C32.3892 23.9813 31.3226 24.0619 30.5619 23.6228C29.8013 23.1836 29.3379 22.2196 29.3219 20.8653C29.3061 19.5236 29.7388 17.895 30.6507 16.3155C31.5626 14.7361 32.7567 13.547 33.9265 12.8898C35.1074 12.2265 36.174 12.1458 36.9346 12.585C37.6952 13.0241 38.1587 13.9882 38.1747 15.3425C38.1905 16.6842 37.7577 18.3128 36.8458 19.8923Z" stroke="#F8312F"/>
</svg>
